<svg xmlns="http://www.w3.org/2000/svg" xmlns:xlink="http://www.w3.org/1999/xlink" width="477.658" height="157.836" viewBox="0 0 477.658 157.836"><defs><clipPath id="clip-path"><rect id="Rectangle_116" data-name="Rectangle 116" width="477.658" height="157.836" fill="#fff"></rect></clipPath></defs><g id="Group_117" data-name="Group 117" transform="translate(0 0)"><g id="Group_116" data-name="Group 116" transform="translate(0 0)" clip-path="url(#clip-path)"><path id="Path_5887" data-name="Path 5887" d="M33.234,64.733c-.557.445-1.588.424-2.266.746-.741-1.732-1.191-2.947-2.6-3.606a5.389,5.389,0,0,0-4.7.17c-4.364,2.147-4.1,11.619-.5,13.936a5.19,5.19,0,0,0,7.977-4.028c.814.168,1.5.462,2.352.587-.907,3.977-3.11,6.914-8.234,6.551-9.586-.69-9.77-18.953,0-19.9,4.807-.478,6.823,2.173,7.982,5.546" transform="translate(23.953 78.716)" fill="#fff"></path><rect id="Rectangle_110" data-name="Rectangle 110" width="2.184" height="2.683" transform="translate(188.741 138.236)" fill="#fff"></rect><path id="Path_5888" data-name="Path 5888" d="M96.233,59.3V78.53H94.051c.056-6.385-.112-12.992.084-19.232Z" transform="translate(125.182 78.939)" fill="#fff"></path><path id="Path_5889" data-name="Path 5889" d="M118.356,59.3V78.53H116V69.04c0-3.24-.133-6.933.17-9.742Z" transform="translate(154.385 78.939)" fill="#fff"></path><path id="Path_5890" data-name="Path 5890" d="M140.124,59.3V78.53h-2.1V77.022a7.522,7.522,0,0,1-1.6,1.431,4.942,4.942,0,0,1-5.371-1.1c-3.352-3.42-2.361-12.388,2.6-13.017a4.369,4.369,0,0,1,4.285,1.767c.054-2.243-.114-4.7.082-6.8Zm-5.373,17.556c4.781,0,4.462-11.12-.42-10.5-4.406.564-3.9,10.5.42,10.5" transform="translate(171.849 78.939)" fill="#fff"></path><rect id="Rectangle_111" data-name="Rectangle 111" width="2.182" height="2.683" transform="translate(384.977 138.236)" fill="#fff"></rect><path id="Path_5891" data-name="Path 5891" d="M180.449,59.3V78.53h-2.184c.061-6.385-.114-12.992.086-19.232Z" transform="translate(237.288 78.939)" fill="#fff"></path><path id="Path_5892" data-name="Path 5892" d="M156.864,59.481c.191,1.448.03,3.264.082,4.868h2.187V66.2h-2.1c-.145,1.184-.084,2.954-.084,4.781,0,2.625-.683,6.031,2.187,5.208.112.73.2,1.476.336,2.182-2.539.529-4.408.021-4.618-2.35-.245-2.714.18-7.068,0-9.749a6.5,6.5,0,0,0-1.6-.072V64.349h1.6V60.819a16.236,16.236,0,0,0,2.014-1.338" transform="translate(204.004 79.182)" fill="#fff"></path><path id="Path_5893" data-name="Path 5893" d="M32.868,61.537c4.348-.552,6.684,2.313,6.893,6.464a10.7,10.7,0,0,1-.669,4.611c-1.648,3.637-7.483,4.681-10,1.012-1.914-2.776-1.41-8.213.249-10.241a5.516,5.516,0,0,1,3.529-1.846m-.42,12.171c4.767,1.993,6.182-5.644,4.285-8.651a3.448,3.448,0,0,0-3.273-1.59c-4.564.49-4.18,8.924-1.012,10.241" transform="translate(37.086 81.828)" fill="#fff"></path><path id="Path_5894" data-name="Path 5894" d="M45.857,63.75c.751-1.8,4.238-3.133,6.3-1.69,2.853,2.009.937,9.378,1.511,13.61H51.48c-.224-3.154.305-7.031,0-9.908A2.3,2.3,0,0,0,49.466,63.5c-4.807-.359-2.888,7.763-3.275,12.174H44.008c-.219-3.112.289-6.994,0-9.831A2.331,2.331,0,0,0,42.073,63.5c-4.854-.4-2.991,7.712-3.357,12.174H36.532V61.733h1.935V63.5c.776-1.6,4.289-2.87,6.3-1.345a4.3,4.3,0,0,1,1.093,1.6" transform="translate(48.631 81.8)" fill="#fff"></path><path id="Path_5895" data-name="Path 5895" d="M57.064,63.75c.753-1.8,4.24-3.133,6.3-1.69,2.853,2.009.944,9.378,1.513,13.61H62.694c-.228-3.154.3-7.031,0-9.908A2.311,2.311,0,0,0,60.68,63.5c-4.807-.359-2.888,7.763-3.28,12.174H55.215c-.219-3.112.291-6.994,0-9.831A2.332,2.332,0,0,0,53.288,63.5c-4.858-.4-3,7.712-3.364,12.174H47.737V61.733h1.935V63.5c.779-1.6,4.294-2.87,6.3-1.345a4.247,4.247,0,0,1,1.1,1.6" transform="translate(63.548 81.8)" fill="#fff"></path><path id="Path_5896" data-name="Path 5896" d="M70.3,69.3H60.974c-.037,2.438,1.252,4.751,3.779,4.711,1.781-.033,2.7-1.3,3.28-2.863a22.72,22.72,0,0,1,2.264.34c-.643,2.371-2.124,4.178-4.7,4.448-4.264.441-6.947-2.569-6.977-7.054C58.6,65.39,60.009,61.9,63.662,61.49c5-.562,6.809,3.264,6.635,7.81m-9.239-1.935h6.975c.322-5.112-7.178-5.056-6.975,0" transform="translate(78.034 81.784)" fill="#fff"></path><path id="Path_5897" data-name="Path 5897" d="M74.124,62.134c-.235.779-.5,1.515-.758,2.264a3.1,3.1,0,0,0-1.595-.5c-3.8.1-1.87,8.005-2.355,11.752H67.233V61.715h1.935v2.019a3.156,3.156,0,0,1,4.956-1.6" transform="translate(89.501 81.816)" fill="#fff"></path><path id="Path_5898" data-name="Path 5898" d="M83.806,65.855a16.539,16.539,0,0,1-2.1.338c-.471-1.513-1.042-2.669-2.693-2.765-5.76-.354-4.751,12.784.925,10.325,1.17-.513,1.678-1.611,1.93-3.194a21.393,21.393,0,0,1,2.182.34c-.566,2.716-1.842,4.716-4.448,5.035-8.458,1.047-8.817-13.64-1.678-14.446,3.613-.4,5.32,1.518,5.877,4.366" transform="translate(97.037 81.784)" fill="#fff"></path><path id="Path_5899" data-name="Path 5899" d="M97.114,75.682H94.845a6.216,6.216,0,0,1-.42-1.6c-2.287,2.625-9.092,2.823-9-2.18.093-4.569,5.126-3.935,8.828-5.038,1.007-4.471-6.262-4.42-6.308-.755a14.623,14.623,0,0,1-2.1-.333,4.713,4.713,0,0,1,4.618-4.289c1.944-.173,4.017.114,5.049,1.18,2.238,2.315-.182,10.113,1.595,13.017m-8.826-5.213c-1.492,1.648.245,3.55,1.849,3.611,2.613.114,4.658-2.154,4.038-5.285-1.648,1.023-4.676.357-5.886,1.674" transform="translate(113.723 81.787)" fill="#fff"></path><path id="Path_5900" data-name="Path 5900" d="M131.442,75.69h-2.184c-.5-3.294,1.2-10.714-1.434-11.919a3.291,3.291,0,0,0-3.863,1c-1.658,2.352-.131,7.336-.671,10.919H121.1V61.752h1.933v1.762a5.451,5.451,0,0,1,3.2-2.021c7.234-.891,4.763,8.054,5.21,14.2" transform="translate(161.212 81.779)" fill="#fff"></path><path id="Path_5901" data-name="Path 5901" d="M155.683,65.532a15.535,15.535,0,0,1-2.107.329,2.889,2.889,0,0,0-1.17-2.091c-1.539-.86-4.362-.191-4.285,1.5.058,1.326,1.681,1.557,2.937,1.935,2.527.751,5.495,1.284,5.126,4.868-.546,5.3-10.448,5.257-10.5-.583a15.909,15.909,0,0,1,2.1-.34c-.009,2.247,2.909,3.522,4.951,2.52a2.051,2.051,0,0,0,1.187-2.266c-.252-1.14-2.189-1.389-3.446-1.762a9.494,9.494,0,0,1-3.529-1.595c-2.282-2.382-.473-6.178,2.856-6.555,3.45-.392,5.59,1.023,5.882,4.038" transform="translate(193.929 81.778)" fill="#fff"></path><path id="Path_5902" data-name="Path 5902" d="M166.053,62.134c-.231.779-.5,1.515-.758,2.264a3.12,3.12,0,0,0-1.594-.5c-3.8.1-1.874,8.005-2.355,11.752h-2.189V61.715h1.935v2.019a3.16,3.16,0,0,1,4.961-1.6" transform="translate(211.87 81.816)" fill="#fff"></path><path id="Path_5903" data-name="Path 5903" d="M181.322,69.3H172c-.037,2.438,1.259,4.751,3.784,4.711,1.774-.033,2.7-1.3,3.278-2.863a22.873,22.873,0,0,1,2.266.34c-.641,2.371-2.128,4.178-4.707,4.448-4.257.441-6.947-2.569-6.97-7.054-.023-3.492,1.385-6.982,5.042-7.392,4.993-.562,6.8,3.264,6.635,7.81m-9.241-1.935h6.975c.319-5.112-7.178-5.056-6.975,0" transform="translate(225.831 81.784)" fill="#fff"></path><path id="Path_5904" data-name="Path 5904" d="M83.155,61.569V75.507H80.971c.056-4.623-.112-9.462.084-13.938Z" transform="translate(107.77 81.962)" fill="#fff"></path><path id="Path_5905" data-name="Path 5905" d="M139.936,61.569c.238,3.152-.343,7.175.086,9.908a2.585,2.585,0,0,0,2.345,2.266c4.944.266,3.229-7.495,3.534-12.174h2.184V75.507h-2.012V73.743c-.646.462-1.047,1.182-1.849,1.595-1.963,1.016-4.819.268-5.8-1.338-1.657-2.725-.135-8.378-.671-12.185-.007-.117-.014-.231.084-.245Z" transform="translate(183.208 81.962)" fill="#fff"></path><path id="Path_5906" data-name="Path 5906" d="M167.333,61.569V75.507h-2.182c.051-4.623-.117-9.462.086-13.938Z" transform="translate(219.826 81.962)" fill="#fff"></path><rect id="Rectangle_112" data-name="Rectangle 112" width="6.644" height="2.268" transform="translate(242.328 149.404)" fill="#fff"></rect><path id="Path_5907" data-name="Path 5907" d="M.162,52.448H459.411c.212-.047.287.035.245.24-.1.837.21,2.1-.168,2.669H0V52.688a.226.226,0,0,1,.161-.24" transform="translate(0.001 69.803)" fill="#fff"></path><path id="Path_5908" data-name="Path 5908" d="M11.278,36.847l10.586,22.7H19.419l-3.571-7.467H6.068L2.534,59.544H0l10.724-22.7Zm-.284,4.821L7.1,49.881h7.761Z" transform="translate(0 49.052)" fill="#fff"></path><path id="Path_5909" data-name="Path 5909" d="M36.517,40.982l-1.758,1.667a13.346,13.346,0,0,0-4.159-2.83,11.185,11.185,0,0,0-4.406-.967,10.488,10.488,0,0,0-5.084,1.315,9.534,9.534,0,0,0-3.744,3.553,9.2,9.2,0,0,0-1.324,4.749,9.35,9.35,0,0,0,1.375,4.87,9.71,9.71,0,0,0,3.791,3.623,10.912,10.912,0,0,0,5.31,1.319A9.076,9.076,0,0,0,32.446,56.3a7.813,7.813,0,0,0,2.867-5.122H28.075V48.995h9.789a11.408,11.408,0,0,1-3.128,8.353,11.193,11.193,0,0,1-8.28,3.1,12.45,12.45,0,0,1-9.968-4.294,11.414,11.414,0,0,1-2.823-7.635,11.683,11.683,0,0,1,1.623-6.005,11.448,11.448,0,0,1,4.443-4.343A12.939,12.939,0,0,1,26.117,36.6a14.3,14.3,0,0,1,5.432,1.037,16.128,16.128,0,0,1,4.968,3.343" transform="translate(18.19 48.726)" fill="#fff"></path><path id="Path_5910" data-name="Path 5910" d="M29.088,36.847H42.1v2.224H31.361v7.11H42.005V48.4H31.361v8.917H42.005v2.222H29.088Z" transform="translate(38.722 49.052)" fill="#fff"></path><path id="Path_5911" data-name="Path 5911" d="M39.544,59.544v-22.7h.49l15.109,17.4v-17.4H57.38v22.7H56.87L41.887,42.356V59.544Z" transform="translate(52.641 49.052)" fill="#fff"></path><path id="Path_5912" data-name="Path 5912" d="M74.488,41.383,72.7,42.759a9.717,9.717,0,0,0-3.555-2.926,10.428,10.428,0,0,0-4.56-1,10.051,10.051,0,0,0-5.028,1.308,9.32,9.32,0,0,0-3.588,3.5,9.633,9.633,0,0,0-1.273,4.94,9.271,9.271,0,0,0,2.844,6.928A9.865,9.865,0,0,0,64.723,58.3,10.1,10.1,0,0,0,72.7,54.564l1.79,1.357a11.345,11.345,0,0,1-4.236,3.338,13.26,13.26,0,0,1-5.669,1.184,11.784,11.784,0,0,1-9.395-3.97A11.924,11.924,0,0,1,52.3,48.391,11.237,11.237,0,0,1,55.8,40a12.041,12.041,0,0,1,8.754-3.4,12.835,12.835,0,0,1,5.742,1.257,11.157,11.157,0,0,1,4.2,3.525" transform="translate(69.622 48.726)" fill="#fff"></path><path id="Path_5913" data-name="Path 5913" d="M66.963,36.847h13.01v2.224H69.236v7.11H79.88V48.4H69.236v8.917H79.88v2.222H66.963Z" transform="translate(89.142 49.052)" fill="#fff"></path><rect id="Rectangle_113" data-name="Rectangle 113" width="2.268" height="22.697" transform="translate(196.313 85.898)" fill="#fff"></rect><path id="Path_5914" data-name="Path 5914" d="M90.157,59.544l3.252-22.7h.368L103,55.471l9.143-18.624h.364l3.264,22.7h-2.224L111.3,43.311l-8.026,16.232H102.7L94.577,43.188,92.346,59.544Z" transform="translate(120.017 49.052)" fill="#fff"></path><path id="Path_5915" data-name="Path 5915" d="M105.8,59.544l3.252-22.7h.364l9.232,18.624,9.141-18.624h.361l3.264,22.7h-2.224l-2.243-16.232-8.024,16.232h-.58l-8.122-16.356-2.231,16.356Z" transform="translate(140.84 49.052)" fill="#fff"></path><path id="Path_5916" data-name="Path 5916" d="M133.269,36.6a11.778,11.778,0,0,1,8.628,3.436,12.065,12.065,0,0,1,.007,16.929,11.483,11.483,0,0,1-8.453,3.473,11.632,11.632,0,0,1-8.523-3.455,11.372,11.372,0,0,1-3.471-8.364,12.11,12.11,0,0,1,1.581-6.07A11.69,11.69,0,0,1,133.269,36.6m.1,2.205a9.349,9.349,0,0,0-4.772,1.308,9.487,9.487,0,0,0-3.529,3.539,9.863,9.863,0,0,0-1.266,4.958,9.552,9.552,0,0,0,9.567,9.621,9.71,9.71,0,0,0,4.9-1.28,9.231,9.231,0,0,0,3.506-3.508,9.86,9.86,0,0,0,1.261-4.942,9.61,9.61,0,0,0-1.261-4.886,9.392,9.392,0,0,0-3.548-3.5,9.6,9.6,0,0,0-4.854-1.308" transform="translate(161.684 48.727)" fill="#fff"></path><path id="Path_5917" data-name="Path 5917" d="M136.879,36.847h4.481a10.567,10.567,0,0,1,4.147.643,5.041,5.041,0,0,1,2.289,1.965,5.379,5.379,0,0,1,.844,2.949,5.26,5.26,0,0,1-.741,2.753,5.472,5.472,0,0,1-2.159,2.012,8.465,8.465,0,0,1,2.721,1.41,5.647,5.647,0,0,1,1.483,1.958,5.9,5.9,0,0,1,.534,2.5,6.112,6.112,0,0,1-2,4.62,7.459,7.459,0,0,1-5.359,1.888h-6.236Zm2.224,2.224v7.262h1.3a10.18,10.18,0,0,0,3.478-.436,3.753,3.753,0,0,0,1.762-1.389,3.647,3.647,0,0,0,.65-2.1,2.986,2.986,0,0,0-1.093-2.448,5.472,5.472,0,0,0-3.471-.886Zm0,9.546v8.7h2.816a10.1,10.1,0,0,0,3.646-.487,4.117,4.117,0,0,0,1.86-1.518,3.964,3.964,0,0,0-.284-4.875,5.107,5.107,0,0,0-2.718-1.548,20.136,20.136,0,0,0-4.033-.277Z" transform="translate(182.213 49.052)" fill="#fff"></path><rect id="Rectangle_114" data-name="Rectangle 114" width="2.268" height="22.697" transform="translate(344.286 85.898)" fill="#fff"></rect><path id="Path_5918" data-name="Path 5918" d="M154.075,36.847h2.268V57.354h8.733v2.189h-11Z" transform="translate(205.104 49.052)" fill="#fff"></path><rect id="Rectangle_115" data-name="Rectangle 115" width="2.271" height="22.697" transform="translate(380.874 85.898)" fill="#fff"></rect><path id="Path_5919" data-name="Path 5919" d="M169.779,40.582h13.01v2.224H172.047v7.11h10.647V52.14H172.047v8.917h10.647v2.222H169.779Zm5.679-6.541,3.362,4.749h-2.128l-4.553-4.749Z" transform="translate(226.01 45.317)" fill="#fff"></path><path id="Path_5920" data-name="Path 5920" d="M180.279,36.847h4.52a27.475,27.475,0,0,1,5.124.31,5.868,5.868,0,0,1,3.287,1.979,5.7,5.7,0,0,1,1.261,3.753,6.046,6.046,0,0,1-.87,3.259,5.387,5.387,0,0,1-2.494,2.121,11.376,11.376,0,0,1-4.474.739L194.8,59.544H192l-8.169-10.535h-1.282V59.544h-2.266Zm2.266,2.224v7.714l3.914.028a9.813,9.813,0,0,0,3.359-.429,3.543,3.543,0,0,0,1.7-1.382,3.863,3.863,0,0,0,.6-2.121,3.7,3.7,0,0,0-.611-2.077,3.484,3.484,0,0,0-1.63-1.331,9.781,9.781,0,0,0-3.336-.4Z" transform="translate(239.988 49.052)" fill="#fff"></path><path id="Path_5921" data-name="Path 5921" d="M191.647,36.847h13.008v2.224h-10.74v7.11h10.644V48.4H193.915v8.917h10.644v2.222H191.647Z" transform="translate(255.12 49.052)" fill="#fff"></path><path id="Path_5922" data-name="Path 5922" d="M120.735.079c11.626-.555,20.428,1.762,25.536,8.061,4.958,6.124,6.588,15.759,6.884,26.452.326,11.7-.66,22.109-4.373,29.236-3.928,7.548-11.285,10.947-22,11.5A48.747,48.747,0,0,1,111.4,73.9c-8.719-2.55-13.313-8.989-15.29-18.144a71.606,71.606,0,0,1-1.59-14.95c0-16.747,1.361-31.415,12.6-37.458a25.554,25.554,0,0,1,6.133-2.268,41.316,41.316,0,0,1,7.483-1m1.923,12.85c-4.916.445-5.6,6.959-5.793,11.672-.168,4.068-.256,8.437-.256,13.6,0,4.812-.11,8.462.256,13.355.3,4.056,1,8.845,3.448,10.418,2.112,1.359,6.08.972,7.644-.424,2.177-1.951,2.578-6.518,2.853-10.831.261-4.1.249-8.726.249-13.526,0-4.32.012-8.775-.336-13.353-.317-4.157-.9-8.714-3.522-10.246a8.352,8.352,0,0,0-4.371-.671,1.42,1.42,0,0,0-.173,0" transform="translate(125.829 0.001)" fill="#fff"></path><path id="Path_5923" data-name="Path 5923" d="M.089.61H20.335V73.425H.005V.862C0,.738-.014.624.089.61" transform="translate(0 0.813)" fill="#fff"></path><path id="Path_5924" data-name="Path 5924" d="M15.258.61H46.093c2.956,14.248,5.779,29.226,8.817,43.169a41.748,41.748,0,0,0,1.259-5.208c2.483-12.626,5-25.128,7.644-37.961H94.647V73.425H74.482c-.054-18.057.11-36.336-.084-54.254-.443.347-.487,1.026-.587,1.513-3.683,17.37-7.383,35.276-11.09,52.741H47.181C43.246,55.242,39.67,37.21,35.591,19.171c-.4,17.738-.058,36.194-.17,54.254H15.172V.862c0-.124-.012-.238.086-.252" transform="translate(20.195 0.813)" fill="#fff"></path><path id="Path_5925" data-name="Path 5925" d="M55.078.61H85.824c3.026,14.3,5.763,28.9,8.826,43.169a6.029,6.029,0,0,0,.671-2.52c2.8-13.481,5.567-27.464,8.231-40.649h30.912V73.425H114.223c-.061-18.057.107-36.336-.084-54.254a49.96,49.96,0,0,0-1.6,6.719c-3.259,15.724-6.751,31.728-10.08,47.536H86.92C83.176,55.538,79.334,37.2,75.413,19.087c-.392,17.761-.058,36.255-.173,54.338H54.994V.862c-.009-.124-.016-.238.084-.252" transform="translate(73.201 0.813)" fill="#fff"></path><path id="Path_5926" data-name="Path 5926" d="M124.3.62h24.028C156.6.62,164.223.263,170.086,2.8c5.791,2.515,9.269,6.6,11.423,12.6,2.058,5.751,2.271,13.526,2.271,21.666,0,8.243-.221,15.948-2.271,21.757A20.033,20.033,0,0,1,170,71.251c-5.9,2.553-13.514,2.184-21.839,2.184H124.217V.872c-.009-.124-.009-.238.086-.252m22.342,13.857V59.828c3.842-.138,8.078.462,10.586-1.259,2.268-1.55,2.982-5.532,3.278-9.327.317-4.091.338-8.29.331-12.174,0-4.194-.023-8.222-.331-12.174-.305-3.928-1.042-7.837-3.278-9.406-2.3-1.623-6.826-1.166-10.5-1.264-.1.019-.091.135-.086.252" transform="translate(165.353 0.803)" fill="#fff"></path><path id="Path_5927" data-name="Path 5927" d="M154.774.61h49.31c-.056,5.119.11,10.472-.084,15.454-9.131-.056-18.479.112-27.473-.084-.193,4.028-.03,8.427-.079,12.6,8.6.049,17.419-.117,25.867.079v14.78H176.447V57.974c9.378.2,19.123.021,28.648.079V73.425H154.774Z" transform="translate(206.035 0.813)" fill="#fff"></path><path id="Path_5928" data-name="Path 5928" d="M177.77.61h22.6c2.94,18.4,5.791,37.054,8.826,54.928a12.563,12.563,0,0,0,.667-3.357C212.5,34.981,215.4,17.989,218.089.61h23.021c-5.94,23.983-11.9,48.634-17.983,72.815H195.243C189.419,49.206,183.487,24.941,177.77.862c-.058-.07-.133-.231,0-.252" transform="translate(236.549 0.813)" fill="#fff"></path></g></g></svg>