<?xml version="1.0" encoding="UTF-8"?>
<svg id="Layer_1" xmlns="http://www.w3.org/2000/svg" version="1.1" viewBox="0 0 477.66 157.84">
  <!-- Generator: Adobe Illustrator 30.2.1, SVG Export Plug-In . SVG Version: 2.1.1 Build 1)  -->
  <defs>
    <style>
      .st0 {
        fill: #231f20;
      }
    </style>
  </defs>
  <g id="Group_117">
    <g id="Group_116">
      <path id="Path_5887" class="st0" d="M57.19,143.45c-.56.44-1.59.42-2.27.75-.74-1.73-1.19-2.95-2.6-3.61-1.51-.67-3.24-.6-4.7.17-4.36,2.15-4.1,11.62-.5,13.94,2.41,1.55,5.62.84,7.17-1.57.47-.74.75-1.58.81-2.46.81.17,1.5.46,2.35.59-.91,3.98-3.11,6.91-8.23,6.55-9.59-.69-9.77-18.95,0-19.9,4.81-.48,6.82,2.17,7.98,5.55"/>
      <rect id="Rectangle_110" class="st0" x="188.74" y="138.24" width="2.18" height="2.68"/>
      <path id="Path_5888" class="st0" d="M221.42,138.24v19.23h-2.18c.06-6.39-.11-12.99.08-19.23h2.1Z"/>
      <path id="Path_5889" class="st0" d="M272.74,138.24v19.23h-2.36v-9.49c0-3.24-.13-6.93.17-9.74h2.19Z"/>
      <path id="Path_5890" class="st0" d="M311.97,138.24v19.23h-2.1v-1.51c-.46.55-1,1.03-1.6,1.43-1.85.75-3.97.32-5.37-1.1-3.35-3.42-2.36-12.39,2.6-13.02,1.65-.28,3.31.41,4.29,1.77.05-2.24-.11-4.7.08-6.8h2.1ZM306.6,155.79c4.78,0,4.46-11.12-.42-10.5-4.41.56-3.9,10.5.42,10.5"/>
      <rect id="Rectangle_111" class="st0" x="384.98" y="138.24" width="2.18" height="2.68"/>
      <path id="Path_5891" class="st0" d="M417.74,138.24v19.23h-2.18c.06-6.39-.11-12.99.09-19.23h2.1Z"/>
      <path id="Path_5892" class="st0" d="M360.87,138.66c.19,1.45.03,3.26.08,4.87h2.19v1.85h-2.1c-.15,1.18-.08,2.95-.08,4.78,0,2.62-.68,6.03,2.19,5.21.11.73.2,1.48.34,2.18-2.54.53-4.41.02-4.62-2.35-.24-2.71.18-7.07,0-9.75-.53-.09-1.07-.11-1.6-.07v-1.85h1.6v-3.53c.7-.4,1.38-.84,2.01-1.34"/>
      <path id="Path_5893" class="st0" d="M69.95,143.37c4.35-.55,6.68,2.31,6.89,6.46.12,1.57-.11,3.14-.67,4.61-1.65,3.64-7.48,4.68-10,1.01-1.91-2.78-1.41-8.21.25-10.24.91-1.03,2.16-1.69,3.53-1.85M69.54,155.54c4.77,1.99,6.18-5.64,4.28-8.65-.7-1.11-1.97-1.73-3.27-1.59-4.56.49-4.18,8.92-1.01,10.24"/>
      <path id="Path_5894" class="st0" d="M94.49,145.55c.75-1.8,4.24-3.13,6.3-1.69,2.85,2.01.94,9.38,1.51,13.61h-2.19c-.22-3.15.31-7.03,0-9.91-.01-1.15-.87-2.12-2.01-2.26-4.81-.36-2.89,7.76-3.28,12.17h-2.18c-.22-3.11.29-6.99,0-9.83.02-1.15-.8-2.15-1.93-2.34-4.85-.4-2.99,7.71-3.36,12.17h-2.18v-13.94h1.94v1.77c.78-1.6,4.29-2.87,6.3-1.35.48.44.86.99,1.09,1.6"/>
      <path id="Path_5895" class="st0" d="M120.61,145.55c.75-1.8,4.24-3.13,6.3-1.69,2.85,2.01.94,9.38,1.51,13.61h-2.18c-.23-3.15.3-7.03,0-9.91-.01-1.15-.87-2.11-2.01-2.26-4.81-.36-2.89,7.76-3.28,12.17h-2.19c-.22-3.11.29-6.99,0-9.83.02-1.15-.8-2.14-1.93-2.34-4.86-.4-3,7.71-3.36,12.17h-2.19v-13.94h1.94v1.77c.78-1.6,4.29-2.87,6.3-1.35.49.44.86.99,1.1,1.6"/>
      <path id="Path_5896" class="st0" d="M148.33,151.08h-9.33c-.04,2.44,1.25,4.75,3.78,4.71,1.78-.03,2.7-1.3,3.28-2.86.76.08,1.52.19,2.26.34-.64,2.37-2.12,4.18-4.7,4.45-4.26.44-6.95-2.57-6.98-7.05-.02-3.49,1.39-6.98,5.04-7.39,5-.56,6.81,3.26,6.63,7.81M139.09,149.15h6.97c.32-5.11-7.18-5.06-6.97,0"/>
      <path id="Path_5897" class="st0" d="M163.62,143.95c-.24.78-.5,1.51-.76,2.26-.48-.31-1.03-.48-1.6-.5-3.8.1-1.87,8-2.36,11.75h-2.18v-13.93h1.93v2.02c.5-1.67,2.25-2.62,3.92-2.13.37.11.72.29,1.03.53"/>
      <path id="Path_5898" class="st0" d="M180.84,147.64c-.69.16-1.39.27-2.1.34-.47-1.51-1.04-2.67-2.69-2.76-5.76-.35-4.75,12.78.93,10.32,1.17-.51,1.68-1.61,1.93-3.19.73.08,1.46.19,2.18.34-.57,2.72-1.84,4.72-4.45,5.03-8.46,1.05-8.82-13.64-1.68-14.45,3.61-.4,5.32,1.52,5.88,4.37"/>
      <path id="Path_5899" class="st0" d="M210.84,157.47h-2.27c-.21-.51-.35-1.05-.42-1.6-2.29,2.62-9.09,2.82-9-2.18.09-4.57,5.13-3.93,8.83-5.04,1.01-4.47-6.26-4.42-6.31-.75-.71-.06-1.41-.17-2.1-.33.22-2.4,2.21-4.25,4.62-4.29,1.94-.17,4.02.11,5.05,1.18,2.24,2.32-.18,10.11,1.6,13.02M202,152.26c-1.49,1.65.25,3.55,1.85,3.61,2.61.11,4.66-2.15,4.04-5.29-1.65,1.02-4.68.36-5.89,1.67"/>
      <path id="Path_5900" class="st0" d="M292.65,157.47h-2.18c-.5-3.29,1.2-10.71-1.43-11.92-1.37-.57-2.95-.16-3.86,1-1.66,2.35-.13,7.34-.67,10.92h-2.19v-13.94h1.93v1.76c.79-1.03,1.93-1.75,3.2-2.02,7.23-.89,4.76,8.05,5.21,14.2"/>
      <path id="Path_5901" class="st0" d="M349.61,147.31c-.69.16-1.4.27-2.11.33-.07-.83-.5-1.6-1.17-2.09-1.54-.86-4.36-.19-4.29,1.5.06,1.33,1.68,1.56,2.94,1.93,2.53.75,5.49,1.28,5.13,4.87-.55,5.3-10.45,5.26-10.5-.58.69-.16,1.39-.27,2.1-.34,0,2.25,2.91,3.52,4.95,2.52.88-.39,1.37-1.33,1.19-2.27-.25-1.14-2.19-1.39-3.45-1.76-1.27-.28-2.47-.83-3.53-1.6-2.28-2.38-.47-6.18,2.86-6.56,3.45-.39,5.59,1.02,5.88,4.04"/>
      <path id="Path_5902" class="st0" d="M377.92,143.95c-.23.78-.5,1.51-.76,2.26-.48-.31-1.03-.48-1.59-.5-3.8.1-1.87,8-2.35,11.75h-2.19v-13.93h1.93v2.02c.5-1.67,2.26-2.63,3.93-2.13.37.11.72.29,1.03.53"/>
      <path id="Path_5903" class="st0" d="M407.15,151.08h-9.32c-.04,2.44,1.26,4.75,3.78,4.71,1.77-.03,2.7-1.3,3.28-2.86.76.08,1.52.19,2.27.34-.64,2.37-2.13,4.18-4.71,4.45-4.26.44-6.95-2.57-6.97-7.05-.02-3.49,1.38-6.98,5.04-7.39,4.99-.56,6.8,3.26,6.63,7.81M397.92,149.15h6.98c.32-5.11-7.18-5.06-6.98,0"/>
      <path id="Path_5904" class="st0" d="M190.92,143.53v13.94h-2.18c.06-4.62-.11-9.46.08-13.94h2.1Z"/>
      <path id="Path_5905" class="st0" d="M323.14,143.53c.24,3.15-.34,7.18.09,9.91.15,1.22,1.13,2.16,2.35,2.27,4.94.27,3.23-7.5,3.53-12.17h2.18v13.94h-2.01v-1.76c-.65.46-1.05,1.18-1.85,1.6-1.96,1.02-4.82.27-5.8-1.34-1.66-2.72-.13-8.38-.67-12.19,0-.12-.01-.23.08-.24h2.1Z"/>
      <path id="Path_5906" class="st0" d="M387.16,143.53v13.94h-2.18c.05-4.62-.12-9.46.09-13.94h2.1Z"/>
      <rect id="Rectangle_112" class="st0" x="242.33" y="149.4" width="6.64" height="2.27"/>
      <path id="Path_5907" class="st0" d="M.16,122.25h459.25c.21-.05.29.03.24.24-.1.84.21,2.1-.17,2.67H0v-2.67c-.01-.11.06-.21.16-.24"/>
      <path id="Path_5908" class="st0" d="M11.28,85.9l10.59,22.7h-2.44l-3.57-7.47H6.07l-3.53,7.46H0l10.72-22.7h.55ZM10.99,90.72l-3.89,8.21h7.76l-3.87-8.21Z"/>
      <path id="Path_5909" class="st0" d="M54.71,89.71l-1.76,1.67c-1.19-1.2-2.61-2.16-4.16-2.83-1.39-.62-2.89-.95-4.41-.97-1.78,0-3.53.45-5.08,1.31-1.55.82-2.85,2.05-3.74,3.55-.87,1.43-1.32,3.08-1.32,4.75,0,1.72.48,3.4,1.38,4.87.91,1.53,2.22,2.79,3.79,3.62,1.63.88,3.46,1.34,5.31,1.32,2.15.06,4.25-.64,5.93-1.98,1.59-1.27,2.61-3.11,2.87-5.12h-7.24v-2.18h9.79c.13,3.09-.99,6.11-3.13,8.35-2.22,2.13-5.21,3.25-8.28,3.1-3.8.17-7.48-1.41-9.97-4.29-1.85-2.11-2.85-4.83-2.82-7.64-.01-2.11.55-4.19,1.62-6.01,1.05-1.83,2.59-3.33,4.44-4.34,1.96-1.06,4.16-1.61,6.39-1.57,1.86-.01,3.71.34,5.43,1.04,1.85.79,3.54,1.93,4.97,3.34"/>
      <path id="Path_5910" class="st0" d="M67.81,85.9h13.01v2.22h-10.74v7.11h10.64v2.22h-10.64v8.92h10.64v2.22h-12.92v-22.69Z"/>
      <path id="Path_5911" class="st0" d="M92.18,108.6v-22.7h.49l15.11,17.4v-17.4h2.24v22.7h-.51l-14.98-17.19v17.19h-2.34Z"/>
      <path id="Path_5912" class="st0" d="M144.11,90.11l-1.79,1.38c-.93-1.25-2.15-2.25-3.56-2.93-1.42-.67-2.98-1.02-4.56-1-1.76-.01-3.5.44-5.03,1.31-1.49.82-2.73,2.03-3.59,3.5-.86,1.5-1.3,3.21-1.27,4.94-.07,2.61.96,5.12,2.84,6.93,1.92,1.87,4.51,2.87,7.18,2.79,3.09.04,6.03-1.34,7.98-3.74l1.79,1.36c-1.12,1.44-2.58,2.58-4.24,3.34-1.78.81-3.72,1.21-5.67,1.18-3.57.17-7.03-1.29-9.4-3.97-1.93-2.24-2.96-5.12-2.89-8.08-.07-3.17,1.2-6.21,3.5-8.39,2.34-2.27,5.5-3.5,8.75-3.4,1.99-.03,3.95.4,5.74,1.26,1.67.81,3.12,2.02,4.2,3.53"/>
      <path id="Path_5913" class="st0" d="M156.1,85.9h13.01v2.22h-10.74v7.11h10.64v2.22h-10.64v8.92h10.64v2.22h-12.92v-22.69Z"/>
      <rect id="Rectangle_113" class="st0" x="196.31" y="85.9" width="2.27" height="22.7"/>
      <path id="Path_5914" class="st0" d="M210.17,108.6l3.25-22.7h.37l9.22,18.63,9.14-18.62h.36l3.26,22.7h-2.22l-2.25-16.24-8.03,16.23h-.57l-8.12-16.35-2.23,16.36h-2.19Z"/>
      <path id="Path_5915" class="st0" d="M246.64,108.6l3.25-22.7h.36l9.23,18.62,9.14-18.62h.36l3.26,22.7h-2.22l-2.24-16.23-8.02,16.23h-.58l-8.12-16.36-2.23,16.36h-2.19Z"/>
      <path id="Path_5916" class="st0" d="M294.95,85.33c3.23-.08,6.34,1.16,8.63,3.44,4.63,4.69,4.63,12.23,0,16.93-2.22,2.28-5.28,3.53-8.45,3.47-3.19.07-6.28-1.18-8.52-3.45-2.27-2.19-3.52-5.22-3.47-8.36-.02-2.13.53-4.22,1.58-6.07,2.08-3.69,5.99-5.97,10.23-5.95M295.05,87.53c-1.68,0-3.33.45-4.77,1.31-1.47.84-2.69,2.07-3.53,3.54-.85,1.51-1.29,3.22-1.27,4.96-.04,5.28,4.21,9.58,9.48,9.62.03,0,.06,0,.08,0,1.72.01,3.41-.43,4.9-1.28,1.47-.83,2.68-2.04,3.51-3.51.85-1.51,1.28-3.21,1.26-4.94.02-1.71-.41-3.4-1.26-4.89-.85-1.46-2.07-2.67-3.55-3.5-1.47-.86-3.15-1.31-4.85-1.31"/>
      <path id="Path_5917" class="st0" d="M319.09,85.9h4.48c1.41-.07,2.82.15,4.15.64.95.41,1.74,1.09,2.29,1.97.56.88.85,1.9.84,2.95.01.97-.25,1.92-.74,2.75-.52.86-1.27,1.55-2.16,2.01.99.3,1.91.78,2.72,1.41.63.54,1.14,1.2,1.48,1.96.36.78.54,1.64.53,2.5.03,1.76-.7,3.44-2,4.62-1.47,1.31-3.39,1.99-5.36,1.89h-6.24v-22.7ZM321.32,88.12v7.26h1.3c1.18.06,2.35-.09,3.48-.44.72-.27,1.33-.76,1.76-1.39.43-.62.65-1.35.65-2.1.04-.94-.36-1.85-1.09-2.45-1.02-.68-2.25-.99-3.47-.89h-2.63ZM321.32,97.67v8.7h2.82c1.23.06,2.47-.1,3.65-.49.76-.31,1.4-.84,1.86-1.52,1.04-1.5.92-3.51-.28-4.88-.72-.79-1.67-1.33-2.72-1.55-1.33-.23-2.68-.32-4.03-.28h-1.29Z"/>
      <rect id="Rectangle_114" class="st0" x="344.29" y="85.9" width="2.27" height="22.7"/>
      <path id="Path_5918" class="st0" d="M359.18,85.9h2.27v20.51h8.73v2.19h-11v-22.7Z"/>
      <rect id="Rectangle_115" class="st0" x="380.87" y="85.9" width="2.27" height="22.7"/>
      <path id="Path_5919" class="st0" d="M395.79,85.9h13.01v2.22h-10.74v7.11h10.65v2.22h-10.65v8.92h10.65v2.22h-12.91v-22.7ZM401.47,79.36l3.36,4.75h-2.13l-4.55-4.75h3.32Z"/>
      <path id="Path_5920" class="st0" d="M420.27,85.9h4.52c1.71-.06,3.43.05,5.12.31,1.29.27,2.44.97,3.29,1.98.86,1.06,1.3,2.39,1.26,3.75.03,1.15-.28,2.28-.87,3.26-.59.95-1.46,1.69-2.49,2.12-1.43.54-2.95.8-4.47.74l8.17,10.54h-2.8l-8.17-10.53h-1.28v10.53h-2.27v-22.7ZM422.53,88.12v7.71l3.91.03c1.14.05,2.27-.09,3.36-.43.7-.27,1.29-.75,1.7-1.38.4-.63.61-1.37.6-2.12,0-.74-.2-1.46-.61-2.08-.39-.6-.96-1.07-1.63-1.33-1.08-.32-2.21-.46-3.34-.4h-4Z"/>
      <path id="Path_5921" class="st0" d="M446.77,85.9h13.01v2.22h-10.74v7.11h10.64v2.22h-10.64v8.92h10.64v2.22h-12.91v-22.69Z"/>
      <path id="Path_5922" class="st0" d="M246.56.08c11.63-.56,20.43,1.76,25.54,8.06,4.96,6.12,6.59,15.76,6.88,26.45.33,11.7-.66,22.11-4.37,29.24-3.93,7.55-11.29,10.95-22,11.5-5.17.34-10.36-.14-15.38-1.43-8.72-2.55-13.31-8.99-15.29-18.14-1.05-4.91-1.59-9.92-1.59-14.95,0-16.75,1.36-31.42,12.6-37.46,1.94-1.02,4-1.78,6.13-2.27,2.46-.56,4.96-.9,7.48-1M248.49,12.93c-4.92.44-5.6,6.96-5.79,11.67-.17,4.07-.26,8.44-.26,13.6,0,4.81-.11,8.46.26,13.35.3,4.06,1,8.85,3.45,10.42,2.11,1.36,6.08.97,7.64-.42,2.18-1.95,2.58-6.52,2.85-10.83.26-4.1.25-8.73.25-13.53,0-4.32.01-8.77-.34-13.35-.32-4.16-.9-8.71-3.52-10.25-1.37-.61-2.88-.84-4.37-.67-.06,0-.12,0-.17,0"/>
      <path id="Path_5923" class="st0" d="M.09,1.42h20.25v72.82H0V1.67c0-.12-.02-.24.08-.25"/>
      <path id="Path_5924" class="st0" d="M35.45,1.42h30.83c2.96,14.25,5.78,29.23,8.82,43.17.53-1.71.95-3.45,1.26-5.21,2.48-12.63,5-25.13,7.64-37.96h30.83v72.82h-20.17c-.05-18.06.11-36.34-.08-54.25-.44.35-.49,1.03-.59,1.51-3.68,17.37-7.38,35.28-11.09,52.74h-15.54c-3.94-18.18-7.51-36.22-11.59-54.25-.4,17.74-.06,36.19-.17,54.25h-20.25V1.67c0-.12-.01-.24.09-.25"/>
      <path id="Path_5925" class="st0" d="M128.28,1.42h30.75c3.03,14.3,5.76,28.9,8.83,43.17.4-.78.63-1.64.67-2.52,2.8-13.48,5.57-27.46,8.23-40.65h30.91v72.82h-20.24c-.06-18.06.11-36.34-.08-54.25-.69,2.2-1.22,4.45-1.6,6.72-3.26,15.72-6.75,31.73-10.08,47.54h-15.54c-3.74-17.89-7.59-36.23-11.51-54.34-.39,17.76-.06,36.26-.17,54.34h-20.25V1.67c0-.12-.02-.24.08-.25"/>
      <path id="Path_5926" class="st0" d="M289.65,1.42h24.03c8.27,0,15.9-.36,21.76,2.18,5.79,2.52,9.27,6.6,11.42,12.6,2.06,5.75,2.27,13.53,2.27,21.67s-.22,15.95-2.27,21.76c-1.81,5.64-6.02,10.19-11.51,12.43-5.9,2.55-13.51,2.18-21.84,2.18h-23.94V1.67c0-.12,0-.24.09-.25M312,15.28v45.35c3.84-.14,8.08.46,10.59-1.26,2.27-1.55,2.98-5.53,3.28-9.33.32-4.09.34-8.29.33-12.17,0-4.19-.02-8.22-.33-12.17-.3-3.93-1.04-7.84-3.28-9.41-2.3-1.62-6.83-1.17-10.5-1.26-.1.02-.09.14-.09.25"/>
      <path id="Path_5927" class="st0" d="M360.81,1.42h49.31c-.06,5.12.11,10.47-.08,15.45-9.13-.06-18.48.11-27.47-.08-.19,4.03-.03,8.43-.08,12.6,8.6.05,17.42-.12,25.87.08v14.78h-25.87v14.53c9.38.2,19.12.02,28.65.08v15.37h-50.32V1.42Z"/>
      <path id="Path_5928" class="st0" d="M414.32,1.42h22.6c2.94,18.4,5.79,37.05,8.83,54.93.37-1.08.6-2.21.67-3.36,2.64-17.2,5.54-34.19,8.23-51.57h23.02c-5.94,23.98-11.9,48.63-17.98,72.82h-27.88c-5.82-24.22-11.76-48.48-17.47-72.56-.06-.07-.13-.23,0-.25"/>
    </g>
  </g>
</svg>